PathFileType	4	(X/Y/Z)	W:\OA_GaitRetraining\ACL OpenCap study\PS1\Edited\Trimmed_C90_L101.trc
DataRate	CameraRate	NumFrames	NumMarkers	Units	OrigDataRate	OrigDataStartFrame	OrigNumFrames
200.00	200.00	       5	46	mm	200.00	56	       147
Frame#	Time	C7			R_Shoulder			L_Shoulder			Sternum			R_humerus			R_elbow_med			R_elbow_lat			R_forearm			R_wrist_radius			R_wrist_ulna			L_humerus			L_elbow_med			L_elbow_lat			L_forearm			L_wrist_radius			L_wrist_ulna			r.ASIS			r.PSIS			L.ASIS			L.PSIS			r_thigh1			r_thigh2			r_thigh3			r_thigh4			r_thigh5			r_knee			r_shank_antsup			r_sh2			r_sh3			r_sh4			r_ankle			r_calc			r_5meta			r_toe			L_thigh1			L_thigh2			L_thigh3			L_thigh4			L_knee			L_shank_antsup			L_sh2			L_sh3			L_ankle			L_calc			L_5meta			L_toe			
		X1	Y1	Z1	X2	Y2	Z2	X3	Y3	Z3	X4	Y4	Z4	X5	Y5	Z5	X6	Y6	Z6	X7	Y7	Z7	X8	Y8	Z8	X9	Y9	Z9	X10	Y10	Z10	X11	Y11	Z11	X12	Y12	Z12	X13	Y13	Z13	X14	Y14	Z14	X15	Y15	Z15	X16	Y16	Z16	X17	Y17	Z17	X18	Y18	Z18	X19	Y19	Z19	X20	Y20	Z20	X21	Y21	Z21	X22	Y22	Z22	X23	Y23	Z23	X24	Y24	Z24	X25	Y25	Z25	X26	Y26	Z26	X27	Y27	Z27	X28	Y28	Z28	X29	Y29	Z29	X30	Y30	Z30	X31	Y31	Z31	X32	Y32	Z32	X33	Y33	Z33	X34	Y34	Z34	X35	Y35	Z35	X36	Y36	Z36	X37	Y37	Z37	X38	Y38	Z38	X39	Y39	Z39	X40	Y40	Z40	X41	Y41	Z41	X42	Y42	Z42	X43	Y43	Z43	X44	Y44	Z44	X45	Y45	Z45	X46	Y46	Z46	

56	0.275	448.10709	88.34106	1205.96765	536.04688	-37.90708	1137.97925	525.32971	237.82289	1131.52771	560.57648	89.27570	1087.77429	389.73257	-210.93198	1053.15002	264.39301	-192.21443	989.37225	312.95007	-257.10431	998.37000	402.63049	-218.14238	877.70343	413.47748	-198.16472	798.41425	446.84351	-174.43564	831.05945	396.91248	342.73550	1074.64673	230.32750	328.90704	1032.56934	252.57031	391.09900	1025.59473	268.10733	410.21573	936.96246	255.55147	381.47891	789.27240	214.81387	419.64429	801.82422	387.85147	-85.60278	740.47479	226.83075	36.71545	800.53381	451.18216	162.24004	768.02716	238.98044	99.17567	802.49121	457.91229	-103.04688	638.81494	548.13287	-92.49489	556.70837	537.00189	-126.20848	511.86334	387.10574	-139.36746	559.19800	474.42050	-125.16286	483.31247	595.32837	-95.99873	373.57071	570.06726	-74.89722	276.57471	486.37796	-30.95440	201.90132	511.98196	-88.45539	326.21500	424.41812	-48.93280	257.20178	333.66724	6.35054	141.63582	265.77844	67.71497	161.56824	379.87323	-11.11419	47.97983	441.48447	42.00809	55.88453	526.85620	203.04855	680.74640	627.48608	200.51410	587.22046	451.01300	266.22052	613.02789	555.96411	255.49521	519.38678	687.98572	244.22386	449.80750	799.89154	264.76276	326.24844	723.15088	309.58325	304.04459	768.21191	308.34705	188.84262	855.73688	326.16168	111.24802	798.72937	318.37207	47.82999	970.18951	326.42316	94.96204	976.74622	252.19264	111.78970	
57	0.280	463.29456	88.15870	1202.88025	549.97015	-38.00928	1134.28564	540.16211	237.09372	1127.43091	575.21552	88.47556	1084.07275	404.45975	-212.36685	1053.95215	277.23419	-193.98337	991.46399	327.32788	-258.13327	1000.19836	416.49786	-217.27237	879.93213	424.94595	-197.96718	798.92822	458.05505	-173.97829	831.74609	412.38544	342.25330	1070.21973	246.28015	328.90863	1026.37744	268.57950	391.32422	1021.01599	285.98907	411.75516	932.39935	277.57346	383.77191	783.99512	236.47229	421.83621	795.80835	401.14874	-86.38567	737.52136	240.96596	35.79280	798.64282	466.39780	160.03209	764.90222	253.91179	98.24507	800.86664	469.30560	-104.04813	636.09290	560.86060	-93.23856	554.19177	548.61420	-128.12717	509.14426	400.06387	-142.53601	558.05273	485.82205	-127.21297	480.76801	606.25214	-98.62739	369.54620	578.78400	-76.97171	272.78345	494.07480	-32.25930	201.35298	521.92236	-91.04442	324.26138	432.59787	-50.78070	258.01526	338.71030	5.56319	145.29475	271.90729	66.97836	168.06116	381.33307	-11.19531	49.48235	443.72705	41.44177	56.34291	542.85455	198.97227	676.88385	642.22626	196.58289	582.17389	466.83630	265.08276	611.43292	570.67981	254.16705	516.32159	701.45667	241.55417	445.53760	811.95648	262.59259	319.99338	735.81409	308.99402	298.95490	780.14056	309.00623	183.79231	867.63055	326.11667	107.11053	806.14819	321.64410	47.98960	979.34509	327.18103	82.00492	986.47131	253.69728	101.99387	
58	0.285	477.55011	87.40581	1199.86182	564.49225	-38.51223	1130.98730	554.78754	236.24574	1123.21216	589.78381	87.50666	1080.37109	418.77911	-213.46469	1054.37134	289.51773	-195.09637	993.25580	341.25238	-258.64600	1001.63800	428.21750	-217.60474	880.57898	435.75220	-198.55200	798.96387	468.66595	-173.78198	831.72461	428.02838	341.85461	1065.02637	262.25018	329.10654	1019.11603	284.85516	391.80383	1015.34485	303.79980	413.33148	926.98358	300.21558	386.06265	778.13422	259.29318	423.56830	788.71185	414.57574	-87.16675	734.32910	255.15443	34.98222	796.51984	481.44843	157.91081	761.54968	268.82330	97.64127	799.12811	481.01767	-105.34556	633.16132	572.05566	-95.19885	550.79016	560.05035	-130.27065	506.23105	411.60455	-143.77231	555.41919	497.20718	-129.20520	477.86588	617.37592	-101.53716	365.38318	587.48621	-78.84534	269.81989	500.45471	-33.26677	199.55489	531.60443	-93.92268	322.16641	441.03583	-52.59604	258.37900	343.97766	4.84374	149.12381	278.43701	66.35762	174.64787	382.98584	-11.14826	51.06716	446.11969	40.44883	57.08774	559.17285	195.03734	673.32068	656.99500	191.69632	577.02490	484.14853	263.72391	610.54315	586.13446	252.29590	513.13165	715.32642	238.52290	440.16690	823.86493	261.59900	313.45108	747.23810	308.10327	293.59653	790.99860	309.56201	178.76826	876.66730	328.04205	101.36680	812.73114	326.20065	47.49654	987.37195	329.58209	65.78271	993.83252	255.95451	88.01250	
59	0.290	491.67303	86.90728	1196.55920	578.77850	-39.33252	1127.85559	569.37329	235.27097	1119.05713	604.30273	86.40022	1076.81897	432.32932	-214.44095	1054.46558	301.82013	-195.71498	994.44720	354.52853	-258.67218	1002.64404	439.19583	-217.98102	880.64117	446.20364	-199.14223	798.36377	478.99295	-174.07217	831.13354	443.73453	341.48801	1059.15393	278.45206	329.65610	1010.91956	301.67126	392.79498	1009.49860	322.13107	415.01700	920.51221	323.57947	388.30881	771.61481	282.57013	427.20190	781.65106	427.89264	-88.09271	730.92859	269.50381	34.35696	794.30035	496.39932	155.76677	758.00659	283.66495	97.34149	797.34613	492.96231	-106.88501	629.95001	583.83948	-97.45319	547.22302	571.38550	-132.53050	502.79538	423.07166	-145.03821	552.54767	508.30957	-130.73170	474.50391	628.57635	-104.53204	361.04330	596.07971	-81.23180	266.37918	507.68854	-34.26317	198.63985	541.99304	-96.45446	320.12701	449.58075	-54.38752	259.49420	349.64288	4.23018	152.86743	285.59497	65.84467	181.38780	384.90485	-10.59496	52.70379	449.10010	40.02499	57.59615	574.99786	190.58475	669.95917	671.57867	186.24518	572.02710	501.73096	261.92392	609.03949	601.41144	250.20883	510.16446	729.03314	234.85429	434.61380	834.30548	260.76614	306.41190	757.62744	307.31122	288.52478	799.67493	311.33771	173.35800	884.75787	333.08569	94.42265	817.90472	331.41116	48.21847	994.81769	332.63333	49.89107	1000.33771	258.46954	72.33904	
60	0.295	506.24487	86.40314	1193.00598	592.88245	-40.58425	1124.95703	583.58502	234.29082	1114.64380	618.69946	85.13693	1073.34363	445.43558	-215.29726	1054.17139	314.08411	-195.86317	995.03851	367.16916	-258.32138	1003.26196	449.76025	-218.69031	880.22150	455.96167	-200.12401	797.45990	488.90073	-174.67859	829.68671	459.47333	340.88361	1052.66907	294.75150	330.51608	1001.86395	318.54980	393.93707	1001.65302	341.18927	416.67352	913.12140	347.55017	390.41559	764.53345	307.00461	428.71570	773.55115	441.96732	-88.60724	727.24847	283.74588	33.93952	791.88940	510.97513	153.50731	754.23315	298.12717	97.36172	795.55377	505.09143	-108.68979	626.53253	595.13428	-99.89537	543.01953	582.70483	-134.86594	498.87363	434.56766	-146.33195	549.34723	519.64893	-133.30524	471.15582	639.79285	-107.92082	356.63428	605.27448	-83.11256	263.27905	514.40570	-37.80956	199.70509	552.21643	-99.09780	318.11652	458.37729	-56.19769	260.34128	355.61459	3.64998	156.82156	293.25156	65.40056	188.14583	387.45554	-10.13170	54.79192	452.19730	39.37428	58.37664	590.77716	186.04793	666.52832	685.57733	179.62764	567.27667	518.89185	260.19620	607.30048	617.52423	247.25853	507.09790	742.73627	231.64926	428.89102	844.51801	259.60693	300.17300	767.30768	306.61118	284.44882	806.91876	313.16574	167.94608	892.13690	338.56235	88.24982	823.38574	334.59576	49.82380	999.95483	338.29153	37.81206	1009.77643	264.55228	61.65631	
